<mxfile host="app.diagrams.net" modified="2023-01-07T10:00:06.843Z" agent="5.0 (Windows NT 10.0; Win64; x64) AppleWebKit/537.36 (KHTML, like Gecko) Chrome/108.0.0.0 Safari/537.36 Edg/108.0.1462.54" etag="SoBkN1LcEn7YMWygSSSb" version="20.8.3" type="github">
  <diagram id="C5RBs43oDa-KdzZeNtuy" name="Page-1">
    <mxGraphModel dx="721" dy="654" grid="1" gridSize="10" guides="1" tooltips="1" connect="1" arrows="1" fold="1" page="1" pageScale="1" pageWidth="827" pageHeight="1169" math="0" shadow="0">
      <root>
        <mxCell id="WIyWlLk6GJQsqaUBKTNV-0" />
        <mxCell id="WIyWlLk6GJQsqaUBKTNV-1" parent="WIyWlLk6GJQsqaUBKTNV-0" />
        <mxCell id="sxWZpPEsp6KU3jiY7LQL-4" style="edgeStyle=orthogonalEdgeStyle;rounded=0;orthogonalLoop=1;jettySize=auto;html=1;exitX=1;exitY=0.5;exitDx=0;exitDy=0;entryX=0;entryY=0.5;entryDx=0;entryDy=0;" parent="WIyWlLk6GJQsqaUBKTNV-1" source="WIyWlLk6GJQsqaUBKTNV-3" target="sxWZpPEsp6KU3jiY7LQL-2" edge="1">
          <mxGeometry relative="1" as="geometry" />
        </mxCell>
        <mxCell id="WIyWlLk6GJQsqaUBKTNV-3" value="客户采购订单" style="rounded=1;whiteSpace=wrap;html=1;fontSize=12;glass=0;strokeWidth=1;shadow=0;" parent="WIyWlLk6GJQsqaUBKTNV-1" vertex="1">
          <mxGeometry x="60" y="80" width="80" height="20" as="geometry" />
        </mxCell>
        <mxCell id="WIyWlLk6GJQsqaUBKTNV-4" value="Yes" style="rounded=0;html=1;jettySize=auto;orthogonalLoop=1;fontSize=11;endArrow=block;endFill=0;endSize=8;strokeWidth=1;shadow=0;labelBackgroundColor=none;edgeStyle=orthogonalEdgeStyle;" parent="WIyWlLk6GJQsqaUBKTNV-1" edge="1">
          <mxGeometry y="20" relative="1" as="geometry">
            <mxPoint as="offset" />
            <mxPoint x="220" y="250" as="sourcePoint" />
          </mxGeometry>
        </mxCell>
        <mxCell id="WIyWlLk6GJQsqaUBKTNV-5" value="No" style="edgeStyle=orthogonalEdgeStyle;rounded=0;html=1;jettySize=auto;orthogonalLoop=1;fontSize=11;endArrow=block;endFill=0;endSize=8;strokeWidth=1;shadow=0;labelBackgroundColor=none;" parent="WIyWlLk6GJQsqaUBKTNV-1" edge="1">
          <mxGeometry y="10" relative="1" as="geometry">
            <mxPoint as="offset" />
            <mxPoint x="270" y="210" as="sourcePoint" />
          </mxGeometry>
        </mxCell>
        <mxCell id="WIyWlLk6GJQsqaUBKTNV-8" value="No" style="rounded=0;html=1;jettySize=auto;orthogonalLoop=1;fontSize=11;endArrow=block;endFill=0;endSize=8;strokeWidth=1;shadow=0;labelBackgroundColor=none;edgeStyle=orthogonalEdgeStyle;" parent="WIyWlLk6GJQsqaUBKTNV-1" edge="1">
          <mxGeometry x="0.3333" y="20" relative="1" as="geometry">
            <mxPoint as="offset" />
            <mxPoint x="220" y="370" as="sourcePoint" />
          </mxGeometry>
        </mxCell>
        <mxCell id="WIyWlLk6GJQsqaUBKTNV-9" value="Yes" style="edgeStyle=orthogonalEdgeStyle;rounded=0;html=1;jettySize=auto;orthogonalLoop=1;fontSize=11;endArrow=block;endFill=0;endSize=8;strokeWidth=1;shadow=0;labelBackgroundColor=none;" parent="WIyWlLk6GJQsqaUBKTNV-1" edge="1">
          <mxGeometry y="10" relative="1" as="geometry">
            <mxPoint as="offset" />
            <mxPoint x="320" y="330" as="targetPoint" />
          </mxGeometry>
        </mxCell>
        <mxCell id="sxWZpPEsp6KU3jiY7LQL-5" style="edgeStyle=orthogonalEdgeStyle;rounded=0;orthogonalLoop=1;jettySize=auto;html=1;exitX=1;exitY=0.5;exitDx=0;exitDy=0;entryX=1;entryY=1;entryDx=0;entryDy=0;" parent="WIyWlLk6GJQsqaUBKTNV-1" source="sxWZpPEsp6KU3jiY7LQL-0" target="sxWZpPEsp6KU3jiY7LQL-7" edge="1">
          <mxGeometry relative="1" as="geometry">
            <mxPoint x="230" y="120" as="targetPoint" />
            <Array as="points">
              <mxPoint x="200" y="120" />
              <mxPoint x="200" y="120" />
            </Array>
          </mxGeometry>
        </mxCell>
        <mxCell id="sxWZpPEsp6KU3jiY7LQL-0" value="客户购车意象" style="rounded=1;whiteSpace=wrap;html=1;fontSize=12;glass=0;strokeWidth=1;shadow=0;" parent="WIyWlLk6GJQsqaUBKTNV-1" vertex="1">
          <mxGeometry x="60" y="110" width="80" height="20" as="geometry" />
        </mxCell>
        <mxCell id="sxWZpPEsp6KU3jiY7LQL-6" style="edgeStyle=orthogonalEdgeStyle;rounded=0;orthogonalLoop=1;jettySize=auto;html=1;exitX=1;exitY=0.5;exitDx=0;exitDy=0;entryX=1;entryY=1;entryDx=0;entryDy=0;" parent="WIyWlLk6GJQsqaUBKTNV-1" source="sxWZpPEsp6KU3jiY7LQL-1" target="sxWZpPEsp6KU3jiY7LQL-7" edge="1">
          <mxGeometry relative="1" as="geometry">
            <mxPoint x="230" y="120" as="targetPoint" />
            <Array as="points">
              <mxPoint x="200" y="150" />
              <mxPoint x="200" y="120" />
            </Array>
          </mxGeometry>
        </mxCell>
        <mxCell id="sxWZpPEsp6KU3jiY7LQL-1" value="客户购车意象" style="rounded=1;whiteSpace=wrap;html=1;fontSize=12;glass=0;strokeWidth=1;shadow=0;" parent="WIyWlLk6GJQsqaUBKTNV-1" vertex="1">
          <mxGeometry x="60" y="140" width="80" height="20" as="geometry" />
        </mxCell>
        <mxCell id="sxWZpPEsp6KU3jiY7LQL-10" style="edgeStyle=orthogonalEdgeStyle;rounded=0;orthogonalLoop=1;jettySize=auto;html=1;exitX=1;exitY=0.5;exitDx=0;exitDy=0;entryX=0;entryY=0.5;entryDx=0;entryDy=0;" parent="WIyWlLk6GJQsqaUBKTNV-1" source="sxWZpPEsp6KU3jiY7LQL-2" target="sxWZpPEsp6KU3jiY7LQL-9" edge="1">
          <mxGeometry relative="1" as="geometry" />
        </mxCell>
        <mxCell id="sxWZpPEsp6KU3jiY7LQL-2" value="客户订单汇总" style="rounded=1;whiteSpace=wrap;html=1;fontSize=12;glass=0;strokeWidth=1;shadow=0;" parent="WIyWlLk6GJQsqaUBKTNV-1" vertex="1">
          <mxGeometry x="260" y="110" width="80" height="20" as="geometry" />
        </mxCell>
        <mxCell id="sxWZpPEsp6KU3jiY7LQL-7" value="订单驱动" style="text;html=1;strokeColor=none;fillColor=none;align=center;verticalAlign=middle;whiteSpace=wrap;rounded=0;" parent="WIyWlLk6GJQsqaUBKTNV-1" vertex="1">
          <mxGeometry x="200" y="90" width="60" height="30" as="geometry" />
        </mxCell>
        <mxCell id="sxWZpPEsp6KU3jiY7LQL-8" value="需求驱动" style="text;html=1;strokeColor=none;fillColor=none;align=center;verticalAlign=middle;whiteSpace=wrap;rounded=0;" parent="WIyWlLk6GJQsqaUBKTNV-1" vertex="1">
          <mxGeometry x="200" y="120" width="60" height="30" as="geometry" />
        </mxCell>
        <mxCell id="67DfNJz796cae_3MI913-1" value="" style="edgeStyle=orthogonalEdgeStyle;rounded=0;orthogonalLoop=1;jettySize=auto;html=1;entryX=0;entryY=0.5;entryDx=0;entryDy=0;" parent="WIyWlLk6GJQsqaUBKTNV-1" source="sxWZpPEsp6KU3jiY7LQL-9" target="67DfNJz796cae_3MI913-2" edge="1">
          <mxGeometry relative="1" as="geometry">
            <mxPoint x="550" y="120" as="targetPoint" />
          </mxGeometry>
        </mxCell>
        <mxCell id="sxWZpPEsp6KU3jiY7LQL-9" value="市场销售预测" style="rounded=1;whiteSpace=wrap;html=1;fontSize=12;glass=0;strokeWidth=1;shadow=0;" parent="WIyWlLk6GJQsqaUBKTNV-1" vertex="1">
          <mxGeometry x="430" y="110" width="80" height="20" as="geometry" />
        </mxCell>
        <mxCell id="sxWZpPEsp6KU3jiY7LQL-11" value="综合分析" style="text;html=1;strokeColor=none;fillColor=none;align=center;verticalAlign=middle;whiteSpace=wrap;rounded=0;" parent="WIyWlLk6GJQsqaUBKTNV-1" vertex="1">
          <mxGeometry x="354" y="90" width="60" height="30" as="geometry" />
        </mxCell>
        <mxCell id="sxWZpPEsp6KU3jiY7LQL-12" value="需求分析" style="text;html=1;strokeColor=none;fillColor=none;align=center;verticalAlign=middle;whiteSpace=wrap;rounded=0;" parent="WIyWlLk6GJQsqaUBKTNV-1" vertex="1">
          <mxGeometry x="354" y="120" width="60" height="30" as="geometry" />
        </mxCell>
        <mxCell id="67DfNJz796cae_3MI913-4" style="edgeStyle=orthogonalEdgeStyle;rounded=0;orthogonalLoop=1;jettySize=auto;html=1;exitX=1;exitY=0.5;exitDx=0;exitDy=0;entryX=0;entryY=0.5;entryDx=0;entryDy=0;" parent="WIyWlLk6GJQsqaUBKTNV-1" source="67DfNJz796cae_3MI913-2" target="67DfNJz796cae_3MI913-3" edge="1">
          <mxGeometry relative="1" as="geometry" />
        </mxCell>
        <mxCell id="67DfNJz796cae_3MI913-2" value="形成销售计划" style="rounded=1;whiteSpace=wrap;html=1;fontSize=12;glass=0;strokeWidth=1;shadow=0;" parent="WIyWlLk6GJQsqaUBKTNV-1" vertex="1">
          <mxGeometry x="540" y="110" width="80" height="20" as="geometry" />
        </mxCell>
        <mxCell id="67DfNJz796cae_3MI913-8" style="edgeStyle=orthogonalEdgeStyle;rounded=0;orthogonalLoop=1;jettySize=auto;html=1;exitX=1;exitY=0.5;exitDx=0;exitDy=0;entryX=0;entryY=0.5;entryDx=0;entryDy=0;" parent="WIyWlLk6GJQsqaUBKTNV-1" source="67DfNJz796cae_3MI913-3" target="67DfNJz796cae_3MI913-6" edge="1">
          <mxGeometry relative="1" as="geometry" />
        </mxCell>
        <mxCell id="67DfNJz796cae_3MI913-3" value="生成销售订单" style="rounded=1;whiteSpace=wrap;html=1;fontSize=12;glass=0;strokeWidth=1;shadow=0;" parent="WIyWlLk6GJQsqaUBKTNV-1" vertex="1">
          <mxGeometry x="650" y="110" width="80" height="20" as="geometry" />
        </mxCell>
        <mxCell id="67DfNJz796cae_3MI913-10" style="edgeStyle=orthogonalEdgeStyle;rounded=0;orthogonalLoop=1;jettySize=auto;html=1;exitX=1;exitY=0.5;exitDx=0;exitDy=0;entryX=0;entryY=0.5;entryDx=0;entryDy=0;" parent="WIyWlLk6GJQsqaUBKTNV-1" source="67DfNJz796cae_3MI913-6" target="67DfNJz796cae_3MI913-9" edge="1">
          <mxGeometry relative="1" as="geometry" />
        </mxCell>
        <mxCell id="67DfNJz796cae_3MI913-17" style="edgeStyle=orthogonalEdgeStyle;rounded=0;orthogonalLoop=1;jettySize=auto;html=1;exitX=0.5;exitY=0;exitDx=0;exitDy=0;entryX=0;entryY=0.5;entryDx=0;entryDy=0;" parent="WIyWlLk6GJQsqaUBKTNV-1" source="67DfNJz796cae_3MI913-6" target="67DfNJz796cae_3MI913-15" edge="1">
          <mxGeometry relative="1" as="geometry" />
        </mxCell>
        <mxCell id="67DfNJz796cae_3MI913-18" style="edgeStyle=orthogonalEdgeStyle;rounded=0;orthogonalLoop=1;jettySize=auto;html=1;exitX=0.5;exitY=1;exitDx=0;exitDy=0;entryX=0;entryY=1;entryDx=0;entryDy=0;" parent="WIyWlLk6GJQsqaUBKTNV-1" source="67DfNJz796cae_3MI913-6" target="67DfNJz796cae_3MI913-13" edge="1">
          <mxGeometry relative="1" as="geometry">
            <mxPoint x="970" y="130" as="targetPoint" />
            <Array as="points">
              <mxPoint x="800" y="150" />
              <mxPoint x="960" y="150" />
              <mxPoint x="960" y="130" />
            </Array>
          </mxGeometry>
        </mxCell>
        <mxCell id="67DfNJz796cae_3MI913-6" value="订单提报" style="rounded=1;whiteSpace=wrap;html=1;fontSize=12;glass=0;strokeWidth=1;shadow=0;" parent="WIyWlLk6GJQsqaUBKTNV-1" vertex="1">
          <mxGeometry x="760" y="110" width="80" height="20" as="geometry" />
        </mxCell>
        <mxCell id="67DfNJz796cae_3MI913-12" style="edgeStyle=orthogonalEdgeStyle;rounded=0;orthogonalLoop=1;jettySize=auto;html=1;exitX=0.5;exitY=0;exitDx=0;exitDy=0;entryX=0.5;entryY=1;entryDx=0;entryDy=0;" parent="WIyWlLk6GJQsqaUBKTNV-1" source="67DfNJz796cae_3MI913-9" target="67DfNJz796cae_3MI913-11" edge="1">
          <mxGeometry relative="1" as="geometry" />
        </mxCell>
        <mxCell id="67DfNJz796cae_3MI913-14" style="edgeStyle=orthogonalEdgeStyle;rounded=0;orthogonalLoop=1;jettySize=auto;html=1;exitX=1;exitY=0.5;exitDx=0;exitDy=0;entryX=0;entryY=0.5;entryDx=0;entryDy=0;" parent="WIyWlLk6GJQsqaUBKTNV-1" source="67DfNJz796cae_3MI913-9" target="67DfNJz796cae_3MI913-13" edge="1">
          <mxGeometry relative="1" as="geometry" />
        </mxCell>
        <mxCell id="67DfNJz796cae_3MI913-9" value="订单审核" style="rounded=1;whiteSpace=wrap;html=1;fontSize=12;glass=0;strokeWidth=1;shadow=0;" parent="WIyWlLk6GJQsqaUBKTNV-1" vertex="1">
          <mxGeometry x="870" y="110" width="80" height="20" as="geometry" />
        </mxCell>
        <mxCell id="67DfNJz796cae_3MI913-11" value="订单结算" style="rounded=1;whiteSpace=wrap;html=1;fontSize=12;glass=0;strokeWidth=1;shadow=0;" parent="WIyWlLk6GJQsqaUBKTNV-1" vertex="1">
          <mxGeometry x="870" y="60" width="80" height="20" as="geometry" />
        </mxCell>
        <mxCell id="67DfNJz796cae_3MI913-22" style="edgeStyle=orthogonalEdgeStyle;rounded=0;orthogonalLoop=1;jettySize=auto;html=1;exitX=1;exitY=0.5;exitDx=0;exitDy=0;" parent="WIyWlLk6GJQsqaUBKTNV-1" source="67DfNJz796cae_3MI913-13" edge="1">
          <mxGeometry relative="1" as="geometry">
            <mxPoint x="1110" y="120" as="targetPoint" />
          </mxGeometry>
        </mxCell>
        <mxCell id="67DfNJz796cae_3MI913-13" value="初始生产计划" style="rounded=1;whiteSpace=wrap;html=1;fontSize=12;glass=0;strokeWidth=1;shadow=0;" parent="WIyWlLk6GJQsqaUBKTNV-1" vertex="1">
          <mxGeometry x="980" y="110" width="80" height="20" as="geometry" />
        </mxCell>
        <mxCell id="67DfNJz796cae_3MI913-21" style="edgeStyle=orthogonalEdgeStyle;rounded=0;orthogonalLoop=1;jettySize=auto;html=1;exitX=1;exitY=0.5;exitDx=0;exitDy=0;entryX=0;entryY=0.5;entryDx=0;entryDy=0;" parent="WIyWlLk6GJQsqaUBKTNV-1" source="67DfNJz796cae_3MI913-15" target="67DfNJz796cae_3MI913-20" edge="1">
          <mxGeometry relative="1" as="geometry" />
        </mxCell>
        <mxCell id="67DfNJz796cae_3MI913-15" value="客户订单" style="rounded=1;whiteSpace=wrap;html=1;fontSize=12;glass=0;strokeWidth=1;shadow=0;" parent="WIyWlLk6GJQsqaUBKTNV-1" vertex="1">
          <mxGeometry x="980" y="80" width="80" height="20" as="geometry" />
        </mxCell>
        <mxCell id="67DfNJz796cae_3MI913-23" style="edgeStyle=orthogonalEdgeStyle;rounded=0;orthogonalLoop=1;jettySize=auto;html=1;exitX=1;exitY=0.5;exitDx=0;exitDy=0;" parent="WIyWlLk6GJQsqaUBKTNV-1" source="67DfNJz796cae_3MI913-16" edge="1">
          <mxGeometry relative="1" as="geometry">
            <mxPoint x="1110" y="120" as="targetPoint" />
            <Array as="points">
              <mxPoint x="1090" y="155" />
              <mxPoint x="1090" y="120" />
            </Array>
          </mxGeometry>
        </mxCell>
        <mxCell id="67DfNJz796cae_3MI913-16" value="成品车库存当量" style="rounded=1;whiteSpace=wrap;html=1;fontSize=12;glass=0;strokeWidth=1;shadow=0;" parent="WIyWlLk6GJQsqaUBKTNV-1" vertex="1">
          <mxGeometry x="980" y="140" width="80" height="30" as="geometry" />
        </mxCell>
        <mxCell id="67DfNJz796cae_3MI913-25" style="edgeStyle=orthogonalEdgeStyle;rounded=0;orthogonalLoop=1;jettySize=auto;html=1;exitX=0.5;exitY=0;exitDx=0;exitDy=0;entryX=0.5;entryY=1;entryDx=0;entryDy=0;" parent="WIyWlLk6GJQsqaUBKTNV-1" source="67DfNJz796cae_3MI913-20" target="67DfNJz796cae_3MI913-24" edge="1">
          <mxGeometry relative="1" as="geometry" />
        </mxCell>
        <mxCell id="67DfNJz796cae_3MI913-29" style="edgeStyle=orthogonalEdgeStyle;rounded=0;orthogonalLoop=1;jettySize=auto;html=1;exitX=1;exitY=0.5;exitDx=0;exitDy=0;entryX=0;entryY=0.5;entryDx=0;entryDy=0;" parent="WIyWlLk6GJQsqaUBKTNV-1" source="67DfNJz796cae_3MI913-20" target="67DfNJz796cae_3MI913-28" edge="1">
          <mxGeometry relative="1" as="geometry" />
        </mxCell>
        <mxCell id="67DfNJz796cae_3MI913-20" value="MPS&lt;br&gt;(主生产计划）" style="rounded=1;whiteSpace=wrap;html=1;fontSize=12;glass=0;strokeWidth=1;shadow=0;" parent="WIyWlLk6GJQsqaUBKTNV-1" vertex="1">
          <mxGeometry x="1110" y="105" width="80" height="30" as="geometry" />
        </mxCell>
        <mxCell id="67DfNJz796cae_3MI913-27" style="edgeStyle=orthogonalEdgeStyle;rounded=0;orthogonalLoop=1;jettySize=auto;html=1;exitX=1;exitY=0.5;exitDx=0;exitDy=0;entryX=0;entryY=0.5;entryDx=0;entryDy=0;" parent="WIyWlLk6GJQsqaUBKTNV-1" source="67DfNJz796cae_3MI913-24" target="67DfNJz796cae_3MI913-26" edge="1">
          <mxGeometry relative="1" as="geometry" />
        </mxCell>
        <mxCell id="67DfNJz796cae_3MI913-24" value="目录公司&lt;br&gt;接收生产计划" style="rounded=1;whiteSpace=wrap;html=1;fontSize=12;glass=0;strokeWidth=1;shadow=0;" parent="WIyWlLk6GJQsqaUBKTNV-1" vertex="1">
          <mxGeometry x="1110" y="30" width="80" height="30" as="geometry" />
        </mxCell>
        <mxCell id="67DfNJz796cae_3MI913-34" style="edgeStyle=orthogonalEdgeStyle;rounded=0;orthogonalLoop=1;jettySize=auto;html=1;exitX=1;exitY=0.5;exitDx=0;exitDy=0;entryX=0.5;entryY=0;entryDx=0;entryDy=0;" parent="WIyWlLk6GJQsqaUBKTNV-1" source="67DfNJz796cae_3MI913-26" target="67DfNJz796cae_3MI913-33" edge="1">
          <mxGeometry relative="1" as="geometry" />
        </mxCell>
        <mxCell id="67DfNJz796cae_3MI913-26" value="代工厂（贵阳，大江东）" style="rounded=1;whiteSpace=wrap;html=1;fontSize=12;glass=0;strokeWidth=1;shadow=0;" parent="WIyWlLk6GJQsqaUBKTNV-1" vertex="1">
          <mxGeometry x="1300" y="30" width="80" height="30" as="geometry" />
        </mxCell>
        <mxCell id="67DfNJz796cae_3MI913-28" value="分解生产计划" style="rounded=1;whiteSpace=wrap;html=1;fontSize=12;glass=0;strokeWidth=1;shadow=0;" parent="WIyWlLk6GJQsqaUBKTNV-1" vertex="1">
          <mxGeometry x="1220" y="105" width="80" height="30" as="geometry" />
        </mxCell>
        <mxCell id="67DfNJz796cae_3MI913-31" value="" style="shape=curlyBracket;whiteSpace=wrap;html=1;rounded=1;labelPosition=left;verticalLabelPosition=middle;align=right;verticalAlign=middle;size=0.5;" parent="WIyWlLk6GJQsqaUBKTNV-1" vertex="1">
          <mxGeometry x="1310" y="80" width="20" height="72.5" as="geometry" />
        </mxCell>
        <mxCell id="67DfNJz796cae_3MI913-37" style="edgeStyle=orthogonalEdgeStyle;rounded=0;orthogonalLoop=1;jettySize=auto;html=1;exitX=1;exitY=0.5;exitDx=0;exitDy=0;entryX=0;entryY=0.5;entryDx=0;entryDy=0;" parent="WIyWlLk6GJQsqaUBKTNV-1" source="67DfNJz796cae_3MI913-32" target="67DfNJz796cae_3MI913-33" edge="1">
          <mxGeometry relative="1" as="geometry" />
        </mxCell>
        <mxCell id="67DfNJz796cae_3MI913-32" value="车型1&lt;br&gt;车型2&lt;br&gt;车型3&lt;br&gt;........&lt;br&gt;车型n" style="text;html=1;strokeColor=none;fillColor=none;align=center;verticalAlign=middle;whiteSpace=wrap;rounded=0;" parent="WIyWlLk6GJQsqaUBKTNV-1" vertex="1">
          <mxGeometry x="1330" y="76.25" width="60" height="80" as="geometry" />
        </mxCell>
        <mxCell id="67DfNJz796cae_3MI913-40" style="edgeStyle=orthogonalEdgeStyle;rounded=0;orthogonalLoop=1;jettySize=auto;html=1;exitX=1;exitY=0.5;exitDx=0;exitDy=0;entryX=0;entryY=0.5;entryDx=0;entryDy=0;" parent="WIyWlLk6GJQsqaUBKTNV-1" source="67DfNJz796cae_3MI913-33" target="67DfNJz796cae_3MI913-39" edge="1">
          <mxGeometry relative="1" as="geometry" />
        </mxCell>
        <mxCell id="67DfNJz796cae_3MI913-33" value="BOM车型&lt;br&gt;分解与计算" style="rounded=1;whiteSpace=wrap;html=1;fontSize=12;glass=0;strokeWidth=1;shadow=0;" parent="WIyWlLk6GJQsqaUBKTNV-1" vertex="1">
          <mxGeometry x="1430" y="101.25" width="80" height="30" as="geometry" />
        </mxCell>
        <mxCell id="67DfNJz796cae_3MI913-39" value="MRP&lt;br&gt;无聊需求计划" style="rounded=1;whiteSpace=wrap;html=1;fontSize=12;glass=0;strokeWidth=1;shadow=0;" parent="WIyWlLk6GJQsqaUBKTNV-1" vertex="1">
          <mxGeometry x="1560" y="101.25" width="80" height="30" as="geometry" />
        </mxCell>
        <mxCell id="67DfNJz796cae_3MI913-41" value="" style="shape=curlyBracket;whiteSpace=wrap;html=1;rounded=1;labelPosition=left;verticalLabelPosition=middle;align=right;verticalAlign=middle;size=0.5;" parent="WIyWlLk6GJQsqaUBKTNV-1" vertex="1">
          <mxGeometry x="1650" y="76.25" width="20" height="72.5" as="geometry" />
        </mxCell>
        <mxCell id="67DfNJz796cae_3MI913-44" style="edgeStyle=orthogonalEdgeStyle;rounded=0;orthogonalLoop=1;jettySize=auto;html=1;exitX=1;exitY=0.5;exitDx=0;exitDy=0;entryX=0;entryY=0.5;entryDx=0;entryDy=0;entryPerimeter=0;" parent="WIyWlLk6GJQsqaUBKTNV-1" source="67DfNJz796cae_3MI913-42" target="67DfNJz796cae_3MI913-43" edge="1">
          <mxGeometry relative="1" as="geometry">
            <mxPoint x="1800" y="111" as="targetPoint" />
          </mxGeometry>
        </mxCell>
        <mxCell id="67DfNJz796cae_3MI913-42" value="零部件1&lt;br&gt;&lt;br&gt;........&lt;br&gt;&lt;br&gt;零部件n" style="text;html=1;strokeColor=none;fillColor=none;align=center;verticalAlign=middle;whiteSpace=wrap;rounded=0;" parent="WIyWlLk6GJQsqaUBKTNV-1" vertex="1">
          <mxGeometry x="1670" y="72.5" width="60" height="80" as="geometry" />
        </mxCell>
        <mxCell id="67DfNJz796cae_3MI913-43" value="" style="strokeWidth=2;html=1;shape=mxgraph.flowchart.annotation_1;align=left;pointerEvents=1;" parent="WIyWlLk6GJQsqaUBKTNV-1" vertex="1">
          <mxGeometry x="1950" y="66.25" width="10" height="90" as="geometry" />
        </mxCell>
        <mxCell id="67DfNJz796cae_3MI913-45" value="y1&lt;br&gt;&lt;br&gt;........&lt;br&gt;&lt;br&gt;ym" style="text;html=1;strokeColor=none;fillColor=none;align=center;verticalAlign=middle;whiteSpace=wrap;rounded=0;" parent="WIyWlLk6GJQsqaUBKTNV-1" vertex="1">
          <mxGeometry x="1910" y="78.13" width="40" height="80" as="geometry" />
        </mxCell>
        <mxCell id="67DfNJz796cae_3MI913-46" value="&lt;p style=&quot;margin: 0cm; font-family: DengXian;&quot; class=&quot;MsoNormal&quot;&gt;&lt;font style=&quot;font-size: 12px;&quot;&gt;&lt;span style=&quot;&quot; lang=&quot;EN-US&quot;&gt;E&lt;sub&gt;1&lt;/sub&gt;&lt;/span&gt;&lt;span style=&quot;&quot; lang=&quot;EN-US&quot;&gt;&lt;sup&gt;p &lt;/sup&gt;.............E&lt;sub&gt;n&lt;/sub&gt;&lt;sup&gt;p&lt;/sup&gt;&lt;/span&gt;&lt;/font&gt;&lt;span style=&quot;font-size: 12pt; font-size: 12pt;&quot; lang=&quot;EN-US&quot;&gt;&lt;/span&gt;&lt;/p&gt;" style="text;html=1;strokeColor=none;fillColor=none;align=left;verticalAlign=middle;whiteSpace=wrap;rounded=0;" parent="WIyWlLk6GJQsqaUBKTNV-1" vertex="1">
          <mxGeometry x="1970" y="13" width="90" height="50" as="geometry" />
        </mxCell>
        <mxCell id="67DfNJz796cae_3MI913-47" value="&lt;p style=&quot;margin: 0cm; font-family: DengXian;&quot; class=&quot;MsoNormal&quot;&gt;&lt;font style=&quot;font-size: 12px;&quot;&gt;&lt;span style=&quot;&quot; lang=&quot;EN-US&quot;&gt;Z&lt;sub&gt;11&lt;/sub&gt;&lt;/span&gt;&lt;span style=&quot;&quot; lang=&quot;EN-US&quot;&gt;&lt;sup&gt;&amp;nbsp;&lt;/sup&gt;&lt;/span&gt;&lt;/font&gt;&lt;span style=&quot;background-color: initial;&quot;&gt;Z&lt;sub&gt;12 &lt;/sub&gt;................ Z&lt;sub&gt;1n&lt;/sub&gt;&lt;/span&gt;&lt;/p&gt;&lt;p style=&quot;margin: 0cm; font-family: DengXian;&quot; class=&quot;MsoNormal&quot;&gt;&lt;span style=&quot;background-color: initial;&quot;&gt;&lt;sub&gt;&lt;br&gt;&lt;/sub&gt;&lt;/span&gt;&lt;/p&gt;&lt;p style=&quot;margin: 0cm; font-family: DengXian;&quot; class=&quot;MsoNormal&quot;&gt;&lt;font style=&quot;border-color: var(--border-color);&quot;&gt;&lt;span style=&quot;border-color: var(--border-color);&quot; lang=&quot;EN-US&quot;&gt;Z&lt;sub style=&quot;border-color: var(--border-color);&quot;&gt;21&lt;/sub&gt;&lt;/span&gt;&lt;span style=&quot;border-color: var(--border-color);&quot; lang=&quot;EN-US&quot;&gt;&lt;sup style=&quot;border-color: var(--border-color);&quot;&gt;&amp;nbsp;&lt;/sup&gt;&lt;/span&gt;&lt;/font&gt;&lt;span style=&quot;border-color: var(--border-color); background-color: initial;&quot;&gt;Z&lt;sub style=&quot;border-color: var(--border-color);&quot;&gt;22&amp;nbsp;&lt;/sub&gt;................ Z&lt;sub style=&quot;border-color: var(--border-color);&quot;&gt;2n&lt;/sub&gt;&lt;/span&gt;&lt;/p&gt;&lt;p style=&quot;margin: 0cm; font-family: DengXian;&quot; class=&quot;MsoNormal&quot;&gt;&lt;span style=&quot;border-color: var(--border-color); background-color: initial;&quot;&gt;&lt;sub style=&quot;border-color: var(--border-color);&quot;&gt;&lt;br&gt;&lt;/sub&gt;&lt;/span&gt;&lt;/p&gt;&lt;p style=&quot;margin: 0cm; font-family: DengXian;&quot; class=&quot;MsoNormal&quot;&gt;&lt;span style=&quot;border-color: var(--border-color); background-color: initial;&quot;&gt;&lt;sub style=&quot;border-color: var(--border-color);&quot;&gt;&lt;font style=&quot;border-color: var(--border-color); font-size: 12px;&quot;&gt;&lt;span style=&quot;border-color: var(--border-color);&quot; lang=&quot;EN-US&quot;&gt;Z&lt;sub style=&quot;border-color: var(--border-color);&quot;&gt;21&lt;/sub&gt;&lt;/span&gt;&lt;span style=&quot;border-color: var(--border-color);&quot; lang=&quot;EN-US&quot;&gt;&lt;sup style=&quot;border-color: var(--border-color);&quot;&gt;&amp;nbsp;&lt;/sup&gt;&lt;/span&gt;&lt;/font&gt;&lt;span style=&quot;border-color: var(--border-color); font-size: 12px; background-color: initial;&quot;&gt;Z&lt;sub style=&quot;border-color: var(--border-color);&quot;&gt;22&amp;nbsp;&lt;/sub&gt;................ Z&lt;sub style=&quot;border-color: var(--border-color);&quot;&gt;2n&lt;/sub&gt;&lt;/span&gt;&lt;br&gt;&lt;/sub&gt;&lt;/span&gt;&lt;/p&gt;&lt;p style=&quot;margin: 0cm; font-family: DengXian;&quot; class=&quot;MsoNormal&quot;&gt;&lt;span style=&quot;border-color: var(--border-color); background-color: initial;&quot;&gt;&lt;sub style=&quot;border-color: var(--border-color);&quot;&gt;&lt;span style=&quot;border-color: var(--border-color); font-size: 12px; background-color: initial;&quot;&gt;&lt;sub style=&quot;border-color: var(--border-color);&quot;&gt;&lt;br&gt;&lt;/sub&gt;&lt;/span&gt;&lt;/sub&gt;&lt;/span&gt;&lt;/p&gt;&lt;p style=&quot;margin: 0cm; font-family: DengXian;&quot; class=&quot;MsoNormal&quot;&gt;&lt;span style=&quot;border-color: var(--border-color); background-color: initial;&quot;&gt;&lt;span style=&quot;border-color: var(--border-color);&quot;&gt;&lt;span style=&quot;border-color: var(--border-color); font-size: 12px; background-color: initial;&quot;&gt;&lt;span style=&quot;border-color: var(--border-color);&quot;&gt;&lt;/span&gt;&lt;/span&gt;&lt;/span&gt;&lt;/span&gt;&lt;/p&gt;&lt;p style=&quot;border-color: var(--border-color); margin: 0cm; font-family: DengXian;&quot; class=&quot;MsoNormal&quot;&gt;&lt;span style=&quot;border-color: var(--border-color); background-color: initial;&quot;&gt;&lt;sub style=&quot;border-color: var(--border-color);&quot;&gt;&lt;font style=&quot;border-color: var(--border-color); font-size: 12px;&quot;&gt;&lt;span style=&quot;border-color: var(--border-color);&quot; lang=&quot;EN-US&quot;&gt;Z&lt;sub style=&quot;border-color: var(--border-color);&quot;&gt;m1&lt;/sub&gt;&lt;/span&gt;&lt;span style=&quot;border-color: var(--border-color);&quot; lang=&quot;EN-US&quot;&gt;&lt;sup style=&quot;border-color: var(--border-color);&quot;&gt;&amp;nbsp;&lt;/sup&gt;&lt;/span&gt;&lt;/font&gt;&lt;span style=&quot;border-color: var(--border-color); font-size: 12px; background-color: initial;&quot;&gt;Z&lt;sub style=&quot;border-color: var(--border-color);&quot;&gt;m2&amp;nbsp;&lt;/sub&gt;................ Z&lt;sub style=&quot;border-color: var(--border-color);&quot;&gt;mn&lt;/sub&gt;&lt;/span&gt;&lt;/sub&gt;&lt;/span&gt;&lt;/p&gt;" style="text;html=1;strokeColor=none;fillColor=none;align=left;verticalAlign=middle;whiteSpace=wrap;rounded=0;" parent="WIyWlLk6GJQsqaUBKTNV-1" vertex="1">
          <mxGeometry x="1970" y="76.25" width="150" height="83.75" as="geometry" />
        </mxCell>
        <mxCell id="njYk10X9vC9XWmvO97f1-0" value="" style="strokeWidth=2;html=1;shape=mxgraph.flowchart.annotation_1;align=left;pointerEvents=1;rotation=-181;" parent="WIyWlLk6GJQsqaUBKTNV-1" vertex="1">
          <mxGeometry x="2110" y="63" width="19" height="93.25" as="geometry" />
        </mxCell>
        <mxCell id="njYk10X9vC9XWmvO97f1-2" value="" style="shape=curlyBracket;whiteSpace=wrap;html=1;rounded=1;labelPosition=left;verticalLabelPosition=middle;align=right;verticalAlign=middle;" parent="WIyWlLk6GJQsqaUBKTNV-1" vertex="1">
          <mxGeometry x="50" y="200" width="20" height="120" as="geometry" />
        </mxCell>
        <mxCell id="w2PkJwAq_LyLqTt0G6Ef-6" style="edgeStyle=orthogonalEdgeStyle;rounded=0;orthogonalLoop=1;jettySize=auto;html=1;exitX=0.5;exitY=1;exitDx=0;exitDy=0;entryX=0.5;entryY=0;entryDx=0;entryDy=0;" parent="WIyWlLk6GJQsqaUBKTNV-1" source="w2PkJwAq_LyLqTt0G6Ef-0" target="w2PkJwAq_LyLqTt0G6Ef-1" edge="1">
          <mxGeometry relative="1" as="geometry" />
        </mxCell>
        <mxCell id="w2PkJwAq_LyLqTt0G6Ef-20" style="edgeStyle=orthogonalEdgeStyle;rounded=0;orthogonalLoop=1;jettySize=auto;html=1;exitX=1;exitY=0.5;exitDx=0;exitDy=0;" parent="WIyWlLk6GJQsqaUBKTNV-1" source="w2PkJwAq_LyLqTt0G6Ef-0" target="w2PkJwAq_LyLqTt0G6Ef-3" edge="1">
          <mxGeometry relative="1" as="geometry" />
        </mxCell>
        <mxCell id="w2PkJwAq_LyLqTt0G6Ef-0" value="阶段采购计划" style="text;html=1;strokeColor=none;fillColor=none;align=center;verticalAlign=middle;whiteSpace=wrap;rounded=0;" parent="WIyWlLk6GJQsqaUBKTNV-1" vertex="1">
          <mxGeometry x="80" y="200" width="80" height="30" as="geometry" />
        </mxCell>
        <mxCell id="w2PkJwAq_LyLqTt0G6Ef-7" style="edgeStyle=orthogonalEdgeStyle;rounded=0;orthogonalLoop=1;jettySize=auto;html=1;exitX=0.5;exitY=1;exitDx=0;exitDy=0;" parent="WIyWlLk6GJQsqaUBKTNV-1" source="w2PkJwAq_LyLqTt0G6Ef-1" target="w2PkJwAq_LyLqTt0G6Ef-2" edge="1">
          <mxGeometry relative="1" as="geometry" />
        </mxCell>
        <mxCell id="w2PkJwAq_LyLqTt0G6Ef-32" style="edgeStyle=orthogonalEdgeStyle;rounded=0;orthogonalLoop=1;jettySize=auto;html=1;exitX=1;exitY=0.5;exitDx=0;exitDy=0;entryX=0;entryY=0.5;entryDx=0;entryDy=0;strokeColor=default;" parent="WIyWlLk6GJQsqaUBKTNV-1" source="w2PkJwAq_LyLqTt0G6Ef-1" target="w2PkJwAq_LyLqTt0G6Ef-4" edge="1">
          <mxGeometry relative="1" as="geometry" />
        </mxCell>
        <mxCell id="w2PkJwAq_LyLqTt0G6Ef-1" value="月采购计划" style="text;html=1;strokeColor=none;fillColor=none;align=center;verticalAlign=middle;whiteSpace=wrap;rounded=0;" parent="WIyWlLk6GJQsqaUBKTNV-1" vertex="1">
          <mxGeometry x="80" y="245" width="80" height="30" as="geometry" />
        </mxCell>
        <mxCell id="w2PkJwAq_LyLqTt0G6Ef-28" style="edgeStyle=orthogonalEdgeStyle;orthogonalLoop=1;jettySize=auto;html=1;exitX=1;exitY=0.5;exitDx=0;exitDy=0;strokeColor=default;rounded=0;" parent="WIyWlLk6GJQsqaUBKTNV-1" source="w2PkJwAq_LyLqTt0G6Ef-2" target="w2PkJwAq_LyLqTt0G6Ef-5" edge="1">
          <mxGeometry relative="1" as="geometry" />
        </mxCell>
        <mxCell id="w2PkJwAq_LyLqTt0G6Ef-2" value="日采购计划" style="text;html=1;strokeColor=none;fillColor=none;align=center;verticalAlign=middle;whiteSpace=wrap;rounded=0;" parent="WIyWlLk6GJQsqaUBKTNV-1" vertex="1">
          <mxGeometry x="80" y="300" width="80" height="30" as="geometry" />
        </mxCell>
        <mxCell id="w2PkJwAq_LyLqTt0G6Ef-21" style="edgeStyle=orthogonalEdgeStyle;rounded=0;orthogonalLoop=1;jettySize=auto;html=1;exitX=1;exitY=0.5;exitDx=0;exitDy=0;" parent="WIyWlLk6GJQsqaUBKTNV-1" source="w2PkJwAq_LyLqTt0G6Ef-3" target="w2PkJwAq_LyLqTt0G6Ef-8" edge="1">
          <mxGeometry relative="1" as="geometry" />
        </mxCell>
        <mxCell id="w2PkJwAq_LyLqTt0G6Ef-3" value="修改阶段&lt;br&gt;采购计划" style="text;html=1;strokeColor=none;fillColor=none;align=center;verticalAlign=middle;whiteSpace=wrap;rounded=0;" parent="WIyWlLk6GJQsqaUBKTNV-1" vertex="1">
          <mxGeometry x="180" y="200" width="80" height="30" as="geometry" />
        </mxCell>
        <mxCell id="w2PkJwAq_LyLqTt0G6Ef-33" style="edgeStyle=orthogonalEdgeStyle;rounded=0;orthogonalLoop=1;jettySize=auto;html=1;exitX=1;exitY=0.5;exitDx=0;exitDy=0;strokeColor=default;" parent="WIyWlLk6GJQsqaUBKTNV-1" source="w2PkJwAq_LyLqTt0G6Ef-4" target="w2PkJwAq_LyLqTt0G6Ef-9" edge="1">
          <mxGeometry relative="1" as="geometry" />
        </mxCell>
        <mxCell id="w2PkJwAq_LyLqTt0G6Ef-4" value="修改&lt;br&gt;月采购计划" style="text;html=1;strokeColor=none;fillColor=none;align=center;verticalAlign=middle;whiteSpace=wrap;rounded=0;" parent="WIyWlLk6GJQsqaUBKTNV-1" vertex="1">
          <mxGeometry x="180" y="245" width="80" height="30" as="geometry" />
        </mxCell>
        <mxCell id="w2PkJwAq_LyLqTt0G6Ef-29" style="edgeStyle=orthogonalEdgeStyle;rounded=0;orthogonalLoop=1;jettySize=auto;html=1;exitX=1;exitY=0.5;exitDx=0;exitDy=0;strokeColor=default;" parent="WIyWlLk6GJQsqaUBKTNV-1" source="w2PkJwAq_LyLqTt0G6Ef-5" target="w2PkJwAq_LyLqTt0G6Ef-10" edge="1">
          <mxGeometry relative="1" as="geometry" />
        </mxCell>
        <mxCell id="w2PkJwAq_LyLqTt0G6Ef-5" value="修改&lt;br&gt;日采购计划" style="text;html=1;strokeColor=none;fillColor=none;align=center;verticalAlign=middle;whiteSpace=wrap;rounded=0;" parent="WIyWlLk6GJQsqaUBKTNV-1" vertex="1">
          <mxGeometry x="180" y="300" width="80" height="30" as="geometry" />
        </mxCell>
        <mxCell id="w2PkJwAq_LyLqTt0G6Ef-22" style="edgeStyle=orthogonalEdgeStyle;rounded=0;orthogonalLoop=1;jettySize=auto;html=1;exitX=1;exitY=0.5;exitDx=0;exitDy=0;entryX=0;entryY=0.5;entryDx=0;entryDy=0;" parent="WIyWlLk6GJQsqaUBKTNV-1" source="w2PkJwAq_LyLqTt0G6Ef-8" target="w2PkJwAq_LyLqTt0G6Ef-11" edge="1">
          <mxGeometry relative="1" as="geometry" />
        </mxCell>
        <mxCell id="w2PkJwAq_LyLqTt0G6Ef-8" value="审核阶段&lt;br&gt;采购计划" style="text;html=1;strokeColor=none;fillColor=none;align=center;verticalAlign=middle;whiteSpace=wrap;rounded=0;" parent="WIyWlLk6GJQsqaUBKTNV-1" vertex="1">
          <mxGeometry x="290" y="200" width="80" height="30" as="geometry" />
        </mxCell>
        <mxCell id="w2PkJwAq_LyLqTt0G6Ef-34" style="edgeStyle=orthogonalEdgeStyle;rounded=0;orthogonalLoop=1;jettySize=auto;html=1;exitX=1;exitY=0.5;exitDx=0;exitDy=0;entryX=0;entryY=0.5;entryDx=0;entryDy=0;strokeColor=default;" parent="WIyWlLk6GJQsqaUBKTNV-1" source="w2PkJwAq_LyLqTt0G6Ef-9" target="w2PkJwAq_LyLqTt0G6Ef-12" edge="1">
          <mxGeometry relative="1" as="geometry" />
        </mxCell>
        <mxCell id="w2PkJwAq_LyLqTt0G6Ef-9" value="审核阶段&lt;br&gt;采购计划" style="text;html=1;strokeColor=none;fillColor=none;align=center;verticalAlign=middle;whiteSpace=wrap;rounded=0;" parent="WIyWlLk6GJQsqaUBKTNV-1" vertex="1">
          <mxGeometry x="290" y="245" width="80" height="30" as="geometry" />
        </mxCell>
        <mxCell id="w2PkJwAq_LyLqTt0G6Ef-30" style="edgeStyle=orthogonalEdgeStyle;rounded=0;orthogonalLoop=1;jettySize=auto;html=1;exitX=1;exitY=0.5;exitDx=0;exitDy=0;strokeColor=default;" parent="WIyWlLk6GJQsqaUBKTNV-1" source="w2PkJwAq_LyLqTt0G6Ef-10" target="w2PkJwAq_LyLqTt0G6Ef-13" edge="1">
          <mxGeometry relative="1" as="geometry" />
        </mxCell>
        <mxCell id="w2PkJwAq_LyLqTt0G6Ef-10" value="审核日&lt;br&gt;采购计划" style="text;html=1;strokeColor=none;fillColor=none;align=center;verticalAlign=middle;whiteSpace=wrap;rounded=0;" parent="WIyWlLk6GJQsqaUBKTNV-1" vertex="1">
          <mxGeometry x="290" y="300" width="80" height="30" as="geometry" />
        </mxCell>
        <mxCell id="w2PkJwAq_LyLqTt0G6Ef-23" style="edgeStyle=orthogonalEdgeStyle;rounded=0;orthogonalLoop=1;jettySize=auto;html=1;exitX=1;exitY=0.5;exitDx=0;exitDy=0;entryX=0;entryY=0.5;entryDx=0;entryDy=0;" parent="WIyWlLk6GJQsqaUBKTNV-1" source="w2PkJwAq_LyLqTt0G6Ef-11" target="w2PkJwAq_LyLqTt0G6Ef-14" edge="1">
          <mxGeometry relative="1" as="geometry" />
        </mxCell>
        <mxCell id="w2PkJwAq_LyLqTt0G6Ef-11" value="发布阶段&lt;br&gt;采购计划" style="text;html=1;strokeColor=none;fillColor=none;align=center;verticalAlign=middle;whiteSpace=wrap;rounded=0;" parent="WIyWlLk6GJQsqaUBKTNV-1" vertex="1">
          <mxGeometry x="390" y="200" width="80" height="30" as="geometry" />
        </mxCell>
        <mxCell id="w2PkJwAq_LyLqTt0G6Ef-35" style="edgeStyle=orthogonalEdgeStyle;rounded=0;orthogonalLoop=1;jettySize=auto;html=1;exitX=1;exitY=0.5;exitDx=0;exitDy=0;entryX=0;entryY=0.5;entryDx=0;entryDy=0;strokeColor=default;" parent="WIyWlLk6GJQsqaUBKTNV-1" source="w2PkJwAq_LyLqTt0G6Ef-12" target="w2PkJwAq_LyLqTt0G6Ef-15" edge="1">
          <mxGeometry relative="1" as="geometry" />
        </mxCell>
        <mxCell id="w2PkJwAq_LyLqTt0G6Ef-12" value="发布月&lt;br&gt;采购计划" style="text;html=1;strokeColor=none;fillColor=none;align=center;verticalAlign=middle;whiteSpace=wrap;rounded=0;" parent="WIyWlLk6GJQsqaUBKTNV-1" vertex="1">
          <mxGeometry x="390" y="245" width="80" height="30" as="geometry" />
        </mxCell>
        <mxCell id="w2PkJwAq_LyLqTt0G6Ef-31" style="edgeStyle=orthogonalEdgeStyle;rounded=0;orthogonalLoop=1;jettySize=auto;html=1;exitX=1;exitY=0.5;exitDx=0;exitDy=0;entryX=0;entryY=0.5;entryDx=0;entryDy=0;strokeColor=default;" parent="WIyWlLk6GJQsqaUBKTNV-1" source="w2PkJwAq_LyLqTt0G6Ef-13" target="w2PkJwAq_LyLqTt0G6Ef-16" edge="1">
          <mxGeometry relative="1" as="geometry" />
        </mxCell>
        <mxCell id="w2PkJwAq_LyLqTt0G6Ef-13" value="发布日&lt;br&gt;采购计划" style="text;html=1;strokeColor=none;fillColor=none;align=center;verticalAlign=middle;whiteSpace=wrap;rounded=0;" parent="WIyWlLk6GJQsqaUBKTNV-1" vertex="1">
          <mxGeometry x="390" y="300" width="80" height="30" as="geometry" />
        </mxCell>
        <mxCell id="w2PkJwAq_LyLqTt0G6Ef-24" style="edgeStyle=orthogonalEdgeStyle;rounded=0;orthogonalLoop=1;jettySize=auto;html=1;exitX=1;exitY=0.5;exitDx=0;exitDy=0;entryX=0;entryY=0.5;entryDx=0;entryDy=0;" parent="WIyWlLk6GJQsqaUBKTNV-1" source="w2PkJwAq_LyLqTt0G6Ef-14" target="w2PkJwAq_LyLqTt0G6Ef-17" edge="1">
          <mxGeometry relative="1" as="geometry" />
        </mxCell>
        <mxCell id="w2PkJwAq_LyLqTt0G6Ef-14" value="阶段采购&lt;br&gt;计划反馈" style="text;html=1;strokeColor=none;fillColor=none;align=center;verticalAlign=middle;whiteSpace=wrap;rounded=0;" parent="WIyWlLk6GJQsqaUBKTNV-1" vertex="1">
          <mxGeometry x="490" y="200" width="80" height="30" as="geometry" />
        </mxCell>
        <mxCell id="w2PkJwAq_LyLqTt0G6Ef-36" style="edgeStyle=orthogonalEdgeStyle;rounded=0;orthogonalLoop=1;jettySize=auto;html=1;exitX=1;exitY=0.5;exitDx=0;exitDy=0;entryX=0;entryY=0.5;entryDx=0;entryDy=0;strokeColor=default;" parent="WIyWlLk6GJQsqaUBKTNV-1" source="w2PkJwAq_LyLqTt0G6Ef-15" target="w2PkJwAq_LyLqTt0G6Ef-18" edge="1">
          <mxGeometry relative="1" as="geometry" />
        </mxCell>
        <mxCell id="w2PkJwAq_LyLqTt0G6Ef-15" value="月采购&lt;br&gt;计划反馈" style="text;html=1;strokeColor=none;fillColor=none;align=center;verticalAlign=middle;whiteSpace=wrap;rounded=0;" parent="WIyWlLk6GJQsqaUBKTNV-1" vertex="1">
          <mxGeometry x="490" y="245" width="80" height="30" as="geometry" />
        </mxCell>
        <mxCell id="w2PkJwAq_LyLqTt0G6Ef-37" style="edgeStyle=orthogonalEdgeStyle;rounded=0;orthogonalLoop=1;jettySize=auto;html=1;exitX=1;exitY=0.5;exitDx=0;exitDy=0;entryX=0;entryY=0.5;entryDx=0;entryDy=0;strokeColor=default;" parent="WIyWlLk6GJQsqaUBKTNV-1" source="w2PkJwAq_LyLqTt0G6Ef-16" target="w2PkJwAq_LyLqTt0G6Ef-19" edge="1">
          <mxGeometry relative="1" as="geometry" />
        </mxCell>
        <mxCell id="w2PkJwAq_LyLqTt0G6Ef-16" value="日采购&lt;br&gt;计划反馈" style="text;html=1;strokeColor=none;fillColor=none;align=center;verticalAlign=middle;whiteSpace=wrap;rounded=0;" parent="WIyWlLk6GJQsqaUBKTNV-1" vertex="1">
          <mxGeometry x="490" y="300" width="80" height="30" as="geometry" />
        </mxCell>
        <mxCell id="w2PkJwAq_LyLqTt0G6Ef-25" style="edgeStyle=orthogonalEdgeStyle;orthogonalLoop=1;jettySize=auto;html=1;exitX=0.5;exitY=0;exitDx=0;exitDy=0;entryX=0.5;entryY=0;entryDx=0;entryDy=0;strokeColor=default;curved=1;" parent="WIyWlLk6GJQsqaUBKTNV-1" source="w2PkJwAq_LyLqTt0G6Ef-17" target="w2PkJwAq_LyLqTt0G6Ef-14" edge="1">
          <mxGeometry relative="1" as="geometry" />
        </mxCell>
        <mxCell id="w2PkJwAq_LyLqTt0G6Ef-41" style="edgeStyle=orthogonalEdgeStyle;rounded=0;orthogonalLoop=1;jettySize=auto;html=1;exitX=1;exitY=0.5;exitDx=0;exitDy=0;entryX=0;entryY=0.5;entryDx=0;entryDy=0;strokeColor=default;" parent="WIyWlLk6GJQsqaUBKTNV-1" source="w2PkJwAq_LyLqTt0G6Ef-17" target="w2PkJwAq_LyLqTt0G6Ef-38" edge="1">
          <mxGeometry relative="1" as="geometry" />
        </mxCell>
        <mxCell id="w2PkJwAq_LyLqTt0G6Ef-17" value="调整阶段&lt;br&gt;采购计划" style="text;html=1;strokeColor=none;fillColor=none;align=center;verticalAlign=middle;whiteSpace=wrap;rounded=0;" parent="WIyWlLk6GJQsqaUBKTNV-1" vertex="1">
          <mxGeometry x="590" y="200" width="80" height="30" as="geometry" />
        </mxCell>
        <mxCell id="w2PkJwAq_LyLqTt0G6Ef-26" style="edgeStyle=orthogonalEdgeStyle;curved=1;orthogonalLoop=1;jettySize=auto;html=1;exitX=0.5;exitY=0;exitDx=0;exitDy=0;entryX=0.5;entryY=0;entryDx=0;entryDy=0;strokeColor=default;" parent="WIyWlLk6GJQsqaUBKTNV-1" source="w2PkJwAq_LyLqTt0G6Ef-18" target="w2PkJwAq_LyLqTt0G6Ef-15" edge="1">
          <mxGeometry relative="1" as="geometry" />
        </mxCell>
        <mxCell id="w2PkJwAq_LyLqTt0G6Ef-42" style="edgeStyle=orthogonalEdgeStyle;rounded=0;orthogonalLoop=1;jettySize=auto;html=1;exitX=1;exitY=0.5;exitDx=0;exitDy=0;entryX=0;entryY=0.5;entryDx=0;entryDy=0;strokeColor=default;" parent="WIyWlLk6GJQsqaUBKTNV-1" source="w2PkJwAq_LyLqTt0G6Ef-18" target="w2PkJwAq_LyLqTt0G6Ef-39" edge="1">
          <mxGeometry relative="1" as="geometry" />
        </mxCell>
        <mxCell id="w2PkJwAq_LyLqTt0G6Ef-18" value="调整月&lt;br&gt;采购计划" style="text;html=1;strokeColor=none;fillColor=none;align=center;verticalAlign=middle;whiteSpace=wrap;rounded=0;" parent="WIyWlLk6GJQsqaUBKTNV-1" vertex="1">
          <mxGeometry x="590" y="245" width="80" height="30" as="geometry" />
        </mxCell>
        <mxCell id="w2PkJwAq_LyLqTt0G6Ef-27" style="edgeStyle=orthogonalEdgeStyle;curved=1;orthogonalLoop=1;jettySize=auto;html=1;exitX=0.5;exitY=0;exitDx=0;exitDy=0;entryX=0.5;entryY=0;entryDx=0;entryDy=0;strokeColor=default;" parent="WIyWlLk6GJQsqaUBKTNV-1" source="w2PkJwAq_LyLqTt0G6Ef-19" target="w2PkJwAq_LyLqTt0G6Ef-16" edge="1">
          <mxGeometry relative="1" as="geometry" />
        </mxCell>
        <mxCell id="w2PkJwAq_LyLqTt0G6Ef-43" style="edgeStyle=orthogonalEdgeStyle;rounded=0;orthogonalLoop=1;jettySize=auto;html=1;exitX=1;exitY=0.5;exitDx=0;exitDy=0;entryX=0;entryY=0.5;entryDx=0;entryDy=0;strokeColor=default;" parent="WIyWlLk6GJQsqaUBKTNV-1" source="w2PkJwAq_LyLqTt0G6Ef-19" target="w2PkJwAq_LyLqTt0G6Ef-40" edge="1">
          <mxGeometry relative="1" as="geometry" />
        </mxCell>
        <mxCell id="w2PkJwAq_LyLqTt0G6Ef-19" value="调整日&lt;br&gt;采购计划" style="text;html=1;strokeColor=none;fillColor=none;align=center;verticalAlign=middle;whiteSpace=wrap;rounded=0;" parent="WIyWlLk6GJQsqaUBKTNV-1" vertex="1">
          <mxGeometry x="590" y="300" width="80" height="30" as="geometry" />
        </mxCell>
        <mxCell id="w2PkJwAq_LyLqTt0G6Ef-38" value="达成阶段&lt;br&gt;采购共识" style="text;html=1;strokeColor=none;fillColor=none;align=center;verticalAlign=middle;whiteSpace=wrap;rounded=0;" parent="WIyWlLk6GJQsqaUBKTNV-1" vertex="1">
          <mxGeometry x="690" y="200" width="80" height="30" as="geometry" />
        </mxCell>
        <mxCell id="w2PkJwAq_LyLqTt0G6Ef-39" value="达成月&lt;br&gt;采购共识" style="text;html=1;strokeColor=none;fillColor=none;align=center;verticalAlign=middle;whiteSpace=wrap;rounded=0;" parent="WIyWlLk6GJQsqaUBKTNV-1" vertex="1">
          <mxGeometry x="690" y="245" width="80" height="30" as="geometry" />
        </mxCell>
        <mxCell id="ZOBcetB8LpldU-i_bRS3-4" style="edgeStyle=orthogonalEdgeStyle;rounded=0;orthogonalLoop=1;jettySize=auto;html=1;exitX=1;exitY=0.5;exitDx=0;exitDy=0;" parent="WIyWlLk6GJQsqaUBKTNV-1" source="w2PkJwAq_LyLqTt0G6Ef-40" target="ZOBcetB8LpldU-i_bRS3-0" edge="1">
          <mxGeometry relative="1" as="geometry" />
        </mxCell>
        <mxCell id="w2PkJwAq_LyLqTt0G6Ef-40" value="达成日&lt;br&gt;采购计划共识" style="text;html=1;strokeColor=none;fillColor=none;align=center;verticalAlign=middle;whiteSpace=wrap;rounded=0;" parent="WIyWlLk6GJQsqaUBKTNV-1" vertex="1">
          <mxGeometry x="690" y="300" width="80" height="30" as="geometry" />
        </mxCell>
        <mxCell id="ZOBcetB8LpldU-i_bRS3-6" style="edgeStyle=orthogonalEdgeStyle;rounded=0;orthogonalLoop=1;jettySize=auto;html=1;exitX=1;exitY=0.5;exitDx=0;exitDy=0;entryX=0;entryY=0.5;entryDx=0;entryDy=0;" parent="WIyWlLk6GJQsqaUBKTNV-1" source="ZOBcetB8LpldU-i_bRS3-0" target="ZOBcetB8LpldU-i_bRS3-5" edge="1">
          <mxGeometry relative="1" as="geometry">
            <Array as="points">
              <mxPoint x="890" y="315" />
              <mxPoint x="890" y="215" />
            </Array>
          </mxGeometry>
        </mxCell>
        <mxCell id="ZOBcetB8LpldU-i_bRS3-0" value="发送采购订单" style="rounded=1;whiteSpace=wrap;html=1;fontSize=12;glass=0;strokeWidth=1;shadow=0;" parent="WIyWlLk6GJQsqaUBKTNV-1" vertex="1">
          <mxGeometry x="800" y="305" width="80" height="20" as="geometry" />
        </mxCell>
        <mxCell id="ZOBcetB8LpldU-i_bRS3-8" style="edgeStyle=orthogonalEdgeStyle;rounded=0;orthogonalLoop=1;jettySize=auto;html=1;exitX=1;exitY=0.5;exitDx=0;exitDy=0;" parent="WIyWlLk6GJQsqaUBKTNV-1" source="ZOBcetB8LpldU-i_bRS3-5" target="ZOBcetB8LpldU-i_bRS3-7" edge="1">
          <mxGeometry relative="1" as="geometry" />
        </mxCell>
        <mxCell id="ZOBcetB8LpldU-i_bRS3-5" value="供应商接受&lt;br&gt;采购订单" style="rounded=1;whiteSpace=wrap;html=1;fontSize=12;glass=0;strokeWidth=1;shadow=0;" parent="WIyWlLk6GJQsqaUBKTNV-1" vertex="1">
          <mxGeometry x="920" y="195" width="80" height="40" as="geometry" />
        </mxCell>
        <mxCell id="ZOBcetB8LpldU-i_bRS3-11" style="edgeStyle=orthogonalEdgeStyle;rounded=0;orthogonalLoop=1;jettySize=auto;html=1;exitX=1;exitY=0.5;exitDx=0;exitDy=0;" parent="WIyWlLk6GJQsqaUBKTNV-1" source="ZOBcetB8LpldU-i_bRS3-7" edge="1">
          <mxGeometry relative="1" as="geometry">
            <mxPoint x="1160" y="215" as="targetPoint" />
          </mxGeometry>
        </mxCell>
        <mxCell id="y0Ve0dRiQaaFomdYPBHN-11" style="edgeStyle=orthogonalEdgeStyle;rounded=0;orthogonalLoop=1;jettySize=auto;html=1;exitX=0.5;exitY=0;exitDx=0;exitDy=0;entryX=0.25;entryY=0;entryDx=0;entryDy=0;" parent="WIyWlLk6GJQsqaUBKTNV-1" source="ZOBcetB8LpldU-i_bRS3-7" target="y5j1Sjd7mTi9s52NVVIf-0" edge="1">
          <mxGeometry relative="1" as="geometry" />
        </mxCell>
        <mxCell id="ZOBcetB8LpldU-i_bRS3-7" value="分析采购&lt;br&gt;订单信息" style="rounded=1;whiteSpace=wrap;html=1;fontSize=12;glass=0;strokeWidth=1;shadow=0;" parent="WIyWlLk6GJQsqaUBKTNV-1" vertex="1">
          <mxGeometry x="1040" y="195" width="80" height="40" as="geometry" />
        </mxCell>
        <mxCell id="ZOBcetB8LpldU-i_bRS3-14" style="edgeStyle=orthogonalEdgeStyle;rounded=0;orthogonalLoop=1;jettySize=auto;html=1;exitX=1;exitY=0.5;exitDx=0;exitDy=0;entryX=0;entryY=0.5;entryDx=0;entryDy=0;" parent="WIyWlLk6GJQsqaUBKTNV-1" source="ZOBcetB8LpldU-i_bRS3-9" target="ZOBcetB8LpldU-i_bRS3-13" edge="1">
          <mxGeometry relative="1" as="geometry" />
        </mxCell>
        <mxCell id="ZOBcetB8LpldU-i_bRS3-9" value="排产" style="rounded=1;whiteSpace=wrap;html=1;fontSize=12;glass=0;strokeWidth=1;shadow=0;" parent="WIyWlLk6GJQsqaUBKTNV-1" vertex="1">
          <mxGeometry x="1161" y="202.5" width="59" height="25" as="geometry" />
        </mxCell>
        <mxCell id="ZOBcetB8LpldU-i_bRS3-13" value="生产零部件" style="rounded=1;whiteSpace=wrap;html=1;fontSize=12;glass=0;strokeWidth=1;shadow=0;" parent="WIyWlLk6GJQsqaUBKTNV-1" vertex="1">
          <mxGeometry x="1320" y="202.5" width="70" height="25" as="geometry" />
        </mxCell>
        <mxCell id="ZOBcetB8LpldU-i_bRS3-15" value="下达至&lt;br&gt;生产车间" style="text;html=1;strokeColor=none;fillColor=none;align=center;verticalAlign=middle;whiteSpace=wrap;rounded=0;" parent="WIyWlLk6GJQsqaUBKTNV-1" vertex="1">
          <mxGeometry x="1230" y="180" width="60" height="30" as="geometry" />
        </mxCell>
        <mxCell id="y5j1Sjd7mTi9s52NVVIf-0" value="" style="rounded=0;whiteSpace=wrap;html=1;" parent="WIyWlLk6GJQsqaUBKTNV-1" vertex="1">
          <mxGeometry x="1480" y="190" width="360" height="130" as="geometry" />
        </mxCell>
        <mxCell id="y0Ve0dRiQaaFomdYPBHN-4" style="edgeStyle=orthogonalEdgeStyle;rounded=0;orthogonalLoop=1;jettySize=auto;html=1;exitX=0.5;exitY=1;exitDx=0;exitDy=0;entryX=0.5;entryY=0;entryDx=0;entryDy=0;" parent="WIyWlLk6GJQsqaUBKTNV-1" source="y5j1Sjd7mTi9s52NVVIf-1" target="y0Ve0dRiQaaFomdYPBHN-1" edge="1">
          <mxGeometry relative="1" as="geometry" />
        </mxCell>
        <mxCell id="y5j1Sjd7mTi9s52NVVIf-1" value="物料建档" style="text;html=1;strokeColor=none;fillColor=none;align=center;verticalAlign=middle;whiteSpace=wrap;rounded=0;" parent="WIyWlLk6GJQsqaUBKTNV-1" vertex="1">
          <mxGeometry x="1530" y="190" width="60" height="30" as="geometry" />
        </mxCell>
        <mxCell id="y0Ve0dRiQaaFomdYPBHN-0" value="TC&lt;br&gt;PMM&lt;br&gt;CAPP&lt;br&gt;CAE&lt;br&gt;CAD&lt;br&gt;CAM&lt;br&gt;……" style="text;html=1;strokeColor=none;fillColor=none;align=center;verticalAlign=middle;whiteSpace=wrap;rounded=0;" parent="WIyWlLk6GJQsqaUBKTNV-1" vertex="1">
          <mxGeometry x="1470" y="210" width="60" height="100" as="geometry" />
        </mxCell>
        <mxCell id="y0Ve0dRiQaaFomdYPBHN-1" value="产品研发" style="text;html=1;strokeColor=none;fillColor=none;align=center;verticalAlign=middle;whiteSpace=wrap;rounded=0;" parent="WIyWlLk6GJQsqaUBKTNV-1" vertex="1">
          <mxGeometry x="1530" y="240" width="60" height="30" as="geometry" />
        </mxCell>
        <mxCell id="y0Ve0dRiQaaFomdYPBHN-2" value="工艺设计" style="text;html=1;strokeColor=none;fillColor=none;align=center;verticalAlign=middle;whiteSpace=wrap;rounded=0;" parent="WIyWlLk6GJQsqaUBKTNV-1" vertex="1">
          <mxGeometry x="1610" y="215" width="60" height="30" as="geometry" />
        </mxCell>
        <mxCell id="y0Ve0dRiQaaFomdYPBHN-6" value="" style="endArrow=classic;html=1;rounded=0;entryX=1;entryY=0.5;entryDx=0;entryDy=0;exitX=0;exitY=0.25;exitDx=0;exitDy=0;" parent="WIyWlLk6GJQsqaUBKTNV-1" source="y0Ve0dRiQaaFomdYPBHN-2" target="y5j1Sjd7mTi9s52NVVIf-1" edge="1">
          <mxGeometry width="50" height="50" relative="1" as="geometry">
            <mxPoint x="1370" y="320" as="sourcePoint" />
            <mxPoint x="1420" y="270" as="targetPoint" />
          </mxGeometry>
        </mxCell>
        <mxCell id="y0Ve0dRiQaaFomdYPBHN-8" value="" style="endArrow=classic;startArrow=classic;html=1;rounded=0;entryX=0;entryY=0.5;entryDx=0;entryDy=0;exitX=1;exitY=0.5;exitDx=0;exitDy=0;" parent="WIyWlLk6GJQsqaUBKTNV-1" source="y0Ve0dRiQaaFomdYPBHN-1" target="y0Ve0dRiQaaFomdYPBHN-2" edge="1">
          <mxGeometry width="50" height="50" relative="1" as="geometry">
            <mxPoint x="1470" y="510" as="sourcePoint" />
            <mxPoint x="1520" y="460" as="targetPoint" />
          </mxGeometry>
        </mxCell>
        <mxCell id="y0Ve0dRiQaaFomdYPBHN-10" style="edgeStyle=orthogonalEdgeStyle;rounded=0;orthogonalLoop=1;jettySize=auto;html=1;exitX=0;exitY=0.5;exitDx=0;exitDy=0;entryX=1;entryY=0.5;entryDx=0;entryDy=0;" parent="WIyWlLk6GJQsqaUBKTNV-1" source="y0Ve0dRiQaaFomdYPBHN-9" target="y5j1Sjd7mTi9s52NVVIf-1" edge="1">
          <mxGeometry relative="1" as="geometry" />
        </mxCell>
        <mxCell id="y0Ve0dRiQaaFomdYPBHN-9" value="设计变更" style="text;html=1;strokeColor=none;fillColor=none;align=center;verticalAlign=middle;whiteSpace=wrap;rounded=0;" parent="WIyWlLk6GJQsqaUBKTNV-1" vertex="1">
          <mxGeometry x="1760" y="190" width="60" height="30" as="geometry" />
        </mxCell>
        <mxCell id="y0Ve0dRiQaaFomdYPBHN-12" value="" style="shape=curlyBracket;whiteSpace=wrap;html=1;rounded=1;labelPosition=left;verticalLabelPosition=middle;align=right;verticalAlign=middle;" parent="WIyWlLk6GJQsqaUBKTNV-1" vertex="1">
          <mxGeometry x="1670" y="213.75" width="20" height="32.5" as="geometry" />
        </mxCell>
        <mxCell id="y0Ve0dRiQaaFomdYPBHN-14" value="工艺路线设计" style="text;html=1;strokeColor=none;fillColor=none;align=left;verticalAlign=middle;whiteSpace=wrap;rounded=0;" parent="WIyWlLk6GJQsqaUBKTNV-1" vertex="1">
          <mxGeometry x="1700" y="205" width="80" height="30" as="geometry" />
        </mxCell>
        <mxCell id="y0Ve0dRiQaaFomdYPBHN-15" value="装配设计" style="text;html=1;strokeColor=none;fillColor=none;align=left;verticalAlign=middle;whiteSpace=wrap;rounded=0;" parent="WIyWlLk6GJQsqaUBKTNV-1" vertex="1">
          <mxGeometry x="1700" y="227.5" width="80" height="30" as="geometry" />
        </mxCell>
        <mxCell id="y0Ve0dRiQaaFomdYPBHN-16" value="BOM表" style="text;html=1;strokeColor=none;fillColor=none;align=center;verticalAlign=middle;whiteSpace=wrap;rounded=0;" parent="WIyWlLk6GJQsqaUBKTNV-1" vertex="1">
          <mxGeometry x="1610" y="270" width="60" height="30" as="geometry" />
        </mxCell>
        <mxCell id="y0Ve0dRiQaaFomdYPBHN-17" value="" style="shape=curlyBracket;whiteSpace=wrap;html=1;rounded=1;labelPosition=left;verticalLabelPosition=middle;align=right;verticalAlign=middle;" parent="WIyWlLk6GJQsqaUBKTNV-1" vertex="1">
          <mxGeometry x="1670" y="260" width="20" height="50" as="geometry" />
        </mxCell>
        <mxCell id="y0Ve0dRiQaaFomdYPBHN-18" value="工艺bom" style="text;html=1;strokeColor=none;fillColor=none;align=left;verticalAlign=middle;whiteSpace=wrap;rounded=0;" parent="WIyWlLk6GJQsqaUBKTNV-1" vertex="1">
          <mxGeometry x="1700" y="246.25" width="60" height="30" as="geometry" />
        </mxCell>
        <mxCell id="y0Ve0dRiQaaFomdYPBHN-19" value="产品bom&lt;br&gt;" style="text;html=1;strokeColor=none;fillColor=none;align=left;verticalAlign=middle;whiteSpace=wrap;rounded=0;" parent="WIyWlLk6GJQsqaUBKTNV-1" vertex="1">
          <mxGeometry x="1700" y="267.5" width="60" height="30" as="geometry" />
        </mxCell>
        <mxCell id="y0Ve0dRiQaaFomdYPBHN-20" value="颜色bom" style="text;html=1;strokeColor=none;fillColor=none;align=left;verticalAlign=middle;whiteSpace=wrap;rounded=0;" parent="WIyWlLk6GJQsqaUBKTNV-1" vertex="1">
          <mxGeometry x="1700" y="290" width="60" height="30" as="geometry" />
        </mxCell>
        <mxCell id="eawYr1RKU0Vx4EdxSpLG-0" value="" style="strokeWidth=2;html=1;shape=mxgraph.flowchart.annotation_1;align=left;pointerEvents=1;" vertex="1" parent="WIyWlLk6GJQsqaUBKTNV-1">
          <mxGeometry x="1950" y="403.25" width="10" height="90" as="geometry" />
        </mxCell>
        <mxCell id="eawYr1RKU0Vx4EdxSpLG-1" value="&lt;p style=&quot;margin: 0cm; font-family: DengXian;&quot; class=&quot;MsoNormal&quot;&gt;&lt;font style=&quot;font-size: 12px;&quot;&gt;&lt;span style=&quot;&quot; lang=&quot;EN-US&quot;&gt;Z&lt;sub&gt;11&lt;/sub&gt;&lt;/span&gt;&lt;span style=&quot;&quot; lang=&quot;EN-US&quot;&gt;&lt;sup&gt;&amp;nbsp;&lt;/sup&gt;&lt;/span&gt;&lt;/font&gt;&lt;span style=&quot;background-color: initial;&quot;&gt;Z&lt;sub&gt;12 &lt;/sub&gt;................ Z&lt;sub&gt;1n&lt;/sub&gt;&lt;/span&gt;&lt;/p&gt;&lt;p style=&quot;margin: 0cm; font-family: DengXian;&quot; class=&quot;MsoNormal&quot;&gt;&lt;span style=&quot;background-color: initial;&quot;&gt;&lt;sub&gt;&lt;br&gt;&lt;/sub&gt;&lt;/span&gt;&lt;/p&gt;&lt;p style=&quot;margin: 0cm; font-family: DengXian;&quot; class=&quot;MsoNormal&quot;&gt;&lt;font style=&quot;border-color: var(--border-color);&quot;&gt;&lt;span style=&quot;border-color: var(--border-color);&quot; lang=&quot;EN-US&quot;&gt;Z&lt;sub style=&quot;border-color: var(--border-color);&quot;&gt;21&lt;/sub&gt;&lt;/span&gt;&lt;span style=&quot;border-color: var(--border-color);&quot; lang=&quot;EN-US&quot;&gt;&lt;sup style=&quot;border-color: var(--border-color);&quot;&gt;&amp;nbsp;&lt;/sup&gt;&lt;/span&gt;&lt;/font&gt;&lt;span style=&quot;border-color: var(--border-color); background-color: initial;&quot;&gt;Z&lt;sub style=&quot;border-color: var(--border-color);&quot;&gt;22&amp;nbsp;&lt;/sub&gt;................ Z&lt;sub style=&quot;border-color: var(--border-color);&quot;&gt;2n&lt;/sub&gt;&lt;/span&gt;&lt;/p&gt;&lt;p style=&quot;margin: 0cm; font-family: DengXian;&quot; class=&quot;MsoNormal&quot;&gt;&lt;span style=&quot;border-color: var(--border-color); background-color: initial;&quot;&gt;&lt;sub style=&quot;border-color: var(--border-color);&quot;&gt;&lt;br&gt;&lt;/sub&gt;&lt;/span&gt;&lt;/p&gt;&lt;p style=&quot;margin: 0cm; font-family: DengXian;&quot; class=&quot;MsoNormal&quot;&gt;&lt;span style=&quot;border-color: var(--border-color); background-color: initial;&quot;&gt;&lt;sub style=&quot;border-color: var(--border-color);&quot;&gt;&lt;font style=&quot;border-color: var(--border-color); font-size: 12px;&quot;&gt;&lt;span style=&quot;border-color: var(--border-color);&quot; lang=&quot;EN-US&quot;&gt;Z&lt;sub style=&quot;border-color: var(--border-color);&quot;&gt;21&lt;/sub&gt;&lt;/span&gt;&lt;span style=&quot;border-color: var(--border-color);&quot; lang=&quot;EN-US&quot;&gt;&lt;sup style=&quot;border-color: var(--border-color);&quot;&gt;&amp;nbsp;&lt;/sup&gt;&lt;/span&gt;&lt;/font&gt;&lt;span style=&quot;border-color: var(--border-color); font-size: 12px; background-color: initial;&quot;&gt;Z&lt;sub style=&quot;border-color: var(--border-color);&quot;&gt;22&amp;nbsp;&lt;/sub&gt;................ Z&lt;sub style=&quot;border-color: var(--border-color);&quot;&gt;2n&lt;/sub&gt;&lt;/span&gt;&lt;br&gt;&lt;/sub&gt;&lt;/span&gt;&lt;/p&gt;&lt;p style=&quot;margin: 0cm; font-family: DengXian;&quot; class=&quot;MsoNormal&quot;&gt;&lt;span style=&quot;border-color: var(--border-color); background-color: initial;&quot;&gt;&lt;sub style=&quot;border-color: var(--border-color);&quot;&gt;&lt;span style=&quot;border-color: var(--border-color); font-size: 12px; background-color: initial;&quot;&gt;&lt;sub style=&quot;border-color: var(--border-color);&quot;&gt;&lt;br&gt;&lt;/sub&gt;&lt;/span&gt;&lt;/sub&gt;&lt;/span&gt;&lt;/p&gt;&lt;p style=&quot;margin: 0cm; font-family: DengXian;&quot; class=&quot;MsoNormal&quot;&gt;&lt;span style=&quot;border-color: var(--border-color); background-color: initial;&quot;&gt;&lt;span style=&quot;border-color: var(--border-color);&quot;&gt;&lt;span style=&quot;border-color: var(--border-color); font-size: 12px; background-color: initial;&quot;&gt;&lt;span style=&quot;border-color: var(--border-color);&quot;&gt;&lt;/span&gt;&lt;/span&gt;&lt;/span&gt;&lt;/span&gt;&lt;/p&gt;&lt;p style=&quot;border-color: var(--border-color); margin: 0cm; font-family: DengXian;&quot; class=&quot;MsoNormal&quot;&gt;&lt;span style=&quot;border-color: var(--border-color); background-color: initial;&quot;&gt;&lt;sub style=&quot;border-color: var(--border-color);&quot;&gt;&lt;font style=&quot;border-color: var(--border-color); font-size: 12px;&quot;&gt;&lt;span style=&quot;border-color: var(--border-color);&quot; lang=&quot;EN-US&quot;&gt;Z&lt;sub style=&quot;border-color: var(--border-color);&quot;&gt;m1&lt;/sub&gt;&lt;/span&gt;&lt;span style=&quot;border-color: var(--border-color);&quot; lang=&quot;EN-US&quot;&gt;&lt;sup style=&quot;border-color: var(--border-color);&quot;&gt;&amp;nbsp;&lt;/sup&gt;&lt;/span&gt;&lt;/font&gt;&lt;span style=&quot;border-color: var(--border-color); font-size: 12px; background-color: initial;&quot;&gt;Z&lt;sub style=&quot;border-color: var(--border-color);&quot;&gt;m2&amp;nbsp;&lt;/sub&gt;................ Z&lt;sub style=&quot;border-color: var(--border-color);&quot;&gt;mn&lt;/sub&gt;&lt;/span&gt;&lt;/sub&gt;&lt;/span&gt;&lt;/p&gt;" style="text;html=1;strokeColor=none;fillColor=none;align=left;verticalAlign=middle;whiteSpace=wrap;rounded=0;" vertex="1" parent="WIyWlLk6GJQsqaUBKTNV-1">
          <mxGeometry x="1970" y="413.25" width="150" height="83.75" as="geometry" />
        </mxCell>
        <mxCell id="eawYr1RKU0Vx4EdxSpLG-2" value="" style="strokeWidth=2;html=1;shape=mxgraph.flowchart.annotation_1;align=left;pointerEvents=1;rotation=-181;" vertex="1" parent="WIyWlLk6GJQsqaUBKTNV-1">
          <mxGeometry x="2110" y="400" width="19" height="93.25" as="geometry" />
        </mxCell>
        <mxCell id="eawYr1RKU0Vx4EdxSpLG-3" value="X&lt;sub&gt;1&lt;/sub&gt;&lt;sup&gt;p&lt;/sup&gt;&lt;br&gt;y2&lt;br&gt;&lt;br&gt;........&lt;br&gt;&lt;br&gt;ym" style="text;html=1;strokeColor=none;fillColor=none;align=center;verticalAlign=middle;whiteSpace=wrap;rounded=0;" vertex="1" parent="WIyWlLk6GJQsqaUBKTNV-1">
          <mxGeometry x="1890" y="403.25" width="40" height="80" as="geometry" />
        </mxCell>
      </root>
    </mxGraphModel>
  </diagram>
</mxfile>
